<?xml version="1.0" encoding="utf-8"?>
<svg version="1.1" width="595.27557pt" height="841.88977pt" id="svg26" viewBox="5.397 73.755 586.281 419.146" xmlns="http://www.w3.org/2000/svg">
  <path d="M 1.803 71.937 L 591.674 71.937 L 591.674 493.595 L 1.803 493.595 L 1.803 71.937 Z" style="fill: rgb(0, 62, 144); fill-rule: evenodd;" id="path8"/>
  <path d="M 341.97 432.997 L 316.47 456.159 L 315.851 456.72 L 315.016 456.591 C 311.035 455.981 307.424 454.397 304.195 451.86 C 301.027 449.371 298.22 445.949 295.791 441.606 L 295.787 441.608 C 293.599 437.73 291.955 433.89 290.854 430.091 C 289.747 426.267 289.194 422.487 289.194 418.759 L 289.194 282.616 L 289.194 281.647 L 290.054 281.15 L 325.406 260.815 L 328.023 259.308 L 328.037 262.274 L 328.615 399.546 L 328.623 399.552 C 328.623 407.804 329.736 414.51 331.958 419.655 C 334.104 424.628 337.309 428.157 341.562 430.228 L 343.812 431.325 L 341.97 432.997 Z" style="fill: rgb(227, 0, 22); fill-rule: evenodd;" id="path9"/>
  <path d="M 342.059 162.875 L 320.617 185.471 L 319.868 186.257 L 318.827 185.942 C 316.051 185.111 312.675 182.808 308.707 179.039 C 304.886 175.405 300.441 170.368 295.389 163.929 L 295.387 163.931 C 290.252 157.812 285.463 153.049 281.025 149.644 C 276.707 146.331 272.749 144.32 269.157 143.621 L 266.383 143.083 L 268.127 140.906 L 293.046 109.834 L 293.912 108.76 L 295.17 109.343 C 299.447 111.329 303.801 114.918 308.216 120.103 C 312.541 125.179 316.958 131.824 321.456 140.024 L 321.469 140.051 C 325.057 146.861 328.532 151.952 331.891 155.316 C 335.016 158.45 337.984 160.023 340.782 160.023 L 344.768 160.023 L 342.059 162.875 Z" style="fill: rgb(227, 0, 22); fill-rule: evenodd;" id="path10"/>
  <path d="M 221.66 452.336 C 219.443 453.907 217.494 455.053 215.826 455.764 C 214.935 456.146 214.108 456.405 213.341 456.546 C 213.077 456.684 212.747 456.761 212.353 456.774 L 212.332 456.774 C 212.019 456.78 211.55 456.711 210.938 456.564 L 211.041 456.118 C 210.851 456.009 210.501 455.831 210.002 455.584 L 198.991 450.217 L 196.401 448.953 L 198.76 447.314 C 216.783 434.79 230.435 422.892 239.701 411.622 C 248.835 400.517 253.687 390.056 254.244 380.251 L 254.244 380.245 C 254.621 374.374 254.174 368.516 252.902 362.693 C 251.633 356.852 249.524 351.024 246.599 345.224 C 243.662 339.406 239.754 333.703 234.883 328.128 C 229.998 322.531 224.106 317.024 217.224 311.621 L 217.226 311.619 L 208.537 304.841 L 208.385 304.721 C 206.574 302.956 204.349 301.407 201.72 300.085 C 199.035 298.731 195.916 297.597 192.373 296.689 L 192.359 296.682 C 188.313 295.607 184.842 295.202 181.961 295.463 C 179.261 295.71 177.085 296.558 175.438 298.004 L 175.396 298.039 C 171.577 301.201 167.803 304.694 164.085 308.503 C 160.344 312.336 156.658 316.491 153.039 320.948 L 153.043 320.952 C 140.515 336.497 133.872 349.37 133.126 359.566 L 133.124 359.566 C 132.554 370.955 132.262 381.651 132.262 391.646 C 132.262 401.579 132.552 410.748 133.122 419.145 C 133.474 421.052 134.588 423.046 136.462 425.123 C 138.49 427.366 141.365 429.671 145.083 432.026 L 147.026 433.258 L 145.273 434.734 L 123.831 452.812 L 123.796 452.846 C 121.408 454.753 119.063 455.822 116.776 456.043 C 114.4 456.274 112.156 455.602 110.061 454.022 C 103.979 450.001 99.405 446.35 96.336 443.071 C 93.037 439.542 91.385 436.335 91.385 433.451 L 91.385 281.298 L 91.385 280.334 L 92.255 279.835 C 103.649 273.293 112.525 268.4 118.871 265.151 C 125.569 261.721 129.744 260.011 131.383 260.011 L 133.13 260.011 L 133.13 261.717 L 133.13 312.399 L 151.589 294.405 L 173.031 273.503 C 177.395 269.25 181.641 266.043 185.757 263.891 L 185.764 263.891 C 189.987 261.682 194.077 260.579 198.028 260.579 C 204.073 260.579 210.787 262.207 218.162 265.462 C 225.421 268.665 233.363 273.467 241.973 279.854 C 253.929 288.742 263.207 298.579 269.794 309.356 C 276.397 320.163 280.291 331.914 281.475 344.594 L 281.477 344.594 C 282.658 356.11 281.526 367.576 278.084 378.994 C 274.648 390.38 268.917 401.701 260.895 412.955 L 260.881 412.97 C 256.007 419.625 250.293 426.237 243.755 432.797 C 237.236 439.343 229.89 445.84 221.73 452.278 L 221.66 452.336 Z" style="fill: rgb(255, 255, 255); fill-rule: evenodd;" id="path11"/>
  <path d="M 308.154 230.087 L 306.404 230.087 L 259.068 230.087 L 257.319 230.087 L 65.318 230.087 L 63.571 230.087 L 63.571 228.384 L 63.571 200.701 L 63.571 198.997 L 65.318 198.997 L 257.319 198.997 L 259.068 198.997 L 306.404 198.997 L 308.154 198.997 L 314.878 198.997 L 316.626 198.997 L 363.964 198.997 L 364.822 198.997 L 391.63 182.874 L 394.294 181.274 L 394.294 184.32 L 394.294 198.997 L 528.158 198.997 L 529.905 198.997 L 529.905 200.701 L 529.905 228.384 L 529.905 230.087 L 528.158 230.087 L 394.86 230.087 C 394.763 235.484 394.214 239.96 393.212 243.515 C 392.04 247.67 390.226 250.618 387.775 252.358 L 387.658 252.43 C 383.251 255.044 379.652 257.29 376.878 259.154 C 376.13 259.658 375.447 260.131 374.822 260.575 L 452.045 260.575 C 467.553 260.575 479.261 263.521 487.145 269.407 C 495.167 275.395 499.189 284.321 499.189 296.172 L 499.183 296.172 L 499.764 413.668 L 499.77 413.674 C 499.77 421.486 500.564 426.172 502.15 427.726 L 502.154 427.722 C 502.59 428.148 503.973 428.885 506.285 429.926 C 508.762 431.038 512.212 432.444 516.621 434.124 L 519.937 435.39 L 516.881 437.166 L 484.813 455.807 L 484.334 455.998 C 483.093 456.298 480.931 455.524 477.859 453.675 C 475.151 452.043 471.502 449.512 466.922 446.097 L 466.745 445.951 C 465.386 444.627 464.095 442.197 462.909 438.677 C 461.979 435.915 461.086 432.431 460.249 428.238 L 417.196 452.988 L 417.009 453.075 C 407.938 457.005 398.908 457.789 389.922 455.428 C 381.019 453.09 372.207 447.667 363.49 439.172 L 363.492 439.17 C 361.155 437.258 358.85 435.009 356.602 432.431 L 356.596 432.435 C 354.348 429.862 352.133 426.935 349.959 423.661 L 349.953 423.666 C 344.271 415.453 340.147 407.84 337.583 400.825 C 334.997 393.742 333.995 387.247 334.591 381.361 L 334.589 381.361 C 334.997 375.572 337.34 369.898 341.601 364.357 C 345.779 358.926 351.813 353.612 359.693 348.429 L 359.693 348.431 L 407.211 316.799 L 407.388 316.694 C 412.533 314.085 417.563 313.086 422.463 313.695 C 427.351 314.303 432.057 316.508 436.571 320.309 L 436.666 320.395 C 437.662 321.368 438.747 322.469 439.904 323.69 C 441.038 324.89 442.305 326.268 443.697 327.819 C 445.041 329.317 446.468 330.994 447.961 332.839 C 449.479 334.716 450.993 336.662 452.49 338.672 L 452.505 338.699 C 455.177 342.419 457.382 345.363 459.114 347.521 L 459.758 348.316 C 459.752 334.157 459.704 323.461 459.622 316.24 C 459.531 308.135 459.413 303.879 459.277 303.485 L 459.203 303.192 C 458.908 301.173 457.551 299.633 455.144 298.57 C 452.383 297.355 448.32 296.749 442.964 296.749 L 364.148 296.749 C 360.992 296.749 357.792 295.98 354.554 294.454 C 351.397 292.967 348.202 290.747 344.989 287.807 L 344.946 287.773 C 340.157 283.104 336.556 278.029 334.146 272.546 L 333.583 271.271 L 334.76 270.48 L 360.083 253.476 L 360.083 230.085 L 316.626 230.085 L 314.878 230.085 L 308.154 230.087 Z" style="fill: rgb(255, 255, 255); fill-rule: evenodd;" id="path12"/>
  <path d="M 462.431 408.905 L 434.614 425.853 L 434.6 425.86 C 431.013 427.994 427.811 429.556 425.006 430.531 C 422.133 431.533 419.609 431.94 417.45 431.76 C 415.274 431.758 412.812 431.139 410.069 429.907 C 407.458 428.733 404.548 426.969 401.354 424.636 L 401.298 424.595 C 395.99 420.381 390.786 415.213 385.688 409.098 C 380.621 403.017 375.645 395.978 370.766 387.989 L 370.739 387.948 C 368.757 384.477 367.225 381.443 366.15 378.865 C 365.031 376.198 364.369 373.933 364.152 372.079 C 363.715 369.42 364.331 366.789 365.994 364.192 C 367.567 361.739 370.098 359.314 373.575 356.922 L 373.731 356.828 C 375.383 355.933 377.316 354.735 379.522 353.241 C 381.721 351.748 384.162 349.978 386.829 347.936 L 386.979 347.838 C 390.762 345.507 394.066 343.848 396.883 342.869 C 399.887 341.821 402.43 341.521 404.495 341.965 L 404.495 341.96 C 407.51 342.59 410.933 344.667 414.744 348.181 L 414.746 348.178 C 418.394 351.536 422.478 356.284 426.99 362.403 L 427.025 362.444 C 434.955 373.89 440.327 381.053 443.132 383.928 C 443.556 383.671 444.09 383.408 444.734 383.144 C 447.557 381.978 453.024 380.491 461.119 378.687 L 463.255 378.214 L 463.255 380.346 L 463.255 407.461 L 463.255 408.404 L 462.431 408.905 Z" style="fill: rgb(0, 62, 144); fill-rule: evenodd;" id="path13"/>
</svg>